<?xml version="1.0" encoding="utf-8"?>
<!-- Generator: Adobe Illustrator 16.0.0, SVG Export Plug-In . SVG Version: 6.00 Build 0)  -->
<!DOCTYPE svg PUBLIC "-//W3C//DTD SVG 1.1//EN" "http://www.w3.org/Graphics/SVG/1.1/DTD/svg11.dtd">
<svg version="1.1" id="Capa_1" xmlns="http://www.w3.org/2000/svg" xmlns:xlink="http://www.w3.org/1999/xlink" x="0px" y="0px"
	 width="420px" height="420px" viewBox="0 0 420 420" enable-background="new 0 0 420 420" xml:space="preserve">
<g>
	<g>
		<defs>
			<circle id="SVGID_1_" cx="209" cy="210" r="203"/>
		</defs>
		<clipPath id="SVGID_2_">
			<use xlink:href="#SVGID_1_"  overflow="visible"/>
		</clipPath>
		<g clip-path="url(#SVGID_2_)">
			<rect x="-72.107" y="1.564" fill="#B22234" width="790.607" height="416.11"/>
			<path stroke="#FFFFFF" stroke-width="32.6486" d="M-72.107,49.576H718.5 M718.5,113.593H-72.107 M-72.107,177.61H718.5
				 M718.5,241.627H-72.107 M-72.107,305.645H718.5 M718.5,369.66H-72.107"/>
			<rect x="-72.107" y="1.564" fill="#3C3B6E" width="316.244" height="224.059"/>
			<g>
				<g>
					<g>
						<g id="s5_11_">
							<g id="s4_21_">
								<path id="s_99_" fill="#FFFFFF" d="M-45.754,11.167l7.526,23.161L-57.93,20.014h24.353l-19.702,14.314L-45.754,11.167z"/>
								<g>
									<path id="s_98_" fill="#FFFFFF" d="M-45.754,55.978l7.526,23.162L-57.93,64.825h24.353L-53.279,79.14L-45.754,55.978z"/>
								</g>
								<g>
									<path id="s_97_" fill="#FFFFFF" d="M-45.754,100.79l7.526,23.161l-19.702-14.314h24.353l-19.702,14.314L-45.754,100.79z"/>
								</g>
								<g>
									<path id="s_96_" fill="#FFFFFF" d="M-45.754,145.602l7.526,23.161l-19.702-14.315h24.353l-19.702,14.315L-45.754,145.602z"
										/>
								</g>
							</g>
							<g>
								<path id="s_95_" fill="#FFFFFF" d="M-45.754,190.414l7.526,23.161l-19.702-14.314h24.353l-19.702,14.314L-45.754,190.414z"
									/>
							</g>
						</g>
						<g id="s9_9_">
							<g id="s4_20_">
								<path id="s_94_" fill="#FFFFFF" d="M-19.399,33.572l7.525,23.162l-19.702-14.315h24.354l-19.703,14.315L-19.399,33.572z"/>
								<g>
									<path id="s_93_" fill="#FFFFFF" d="M-19.399,78.385l7.525,23.161l-19.702-14.314h24.354l-19.703,14.314L-19.399,78.385z"/>
								</g>
								<g>
									<path id="s_92_" fill="#FFFFFF" d="M-19.399,123.196l7.525,23.162l-19.702-14.315h24.354l-19.703,14.315L-19.399,123.196z"
										/>
								</g>
								<g>
									<path id="s_91_" fill="#FFFFFF" d="M-19.399,168.007l7.525,23.162l-19.702-14.315h24.354l-19.703,14.315L-19.399,168.007z"
										/>
								</g>
							</g>
						</g>
						<g>
							<g id="s18_3_">
								<g id="s5_10_">
									<g id="s4_19_">
										<path id="s_90_" fill="#FFFFFF" d="M6.954,11.167l7.526,23.161L-5.223,20.014H19.13L-0.572,34.328L6.954,11.167z"/>
										<g>
											<path id="s_89_" fill="#FFFFFF" d="M6.954,55.978L14.48,79.14L-5.223,64.825H19.13L-0.572,79.14L6.954,55.978z"/>
										</g>
										<g>
											<path id="s_88_" fill="#FFFFFF" d="M6.954,100.79l7.526,23.161l-19.703-14.314H19.13l-19.702,14.314L6.954,100.79z"/>
										</g>
										<g>
											<path id="s_87_" fill="#FFFFFF" d="M6.954,145.602l7.526,23.161l-19.703-14.315H19.13l-19.702,14.315L6.954,145.602z"/>
										</g>
									</g>
									<g>
										<path id="s_86_" fill="#FFFFFF" d="M6.954,190.414l7.526,23.161l-19.703-14.314H19.13l-19.702,14.314L6.954,190.414z"/>
									</g>
								</g>
								<g id="s9_8_">
									<g id="s4_18_">
										<path id="s_85_" fill="#FFFFFF" d="M33.307,33.572l7.525,23.162L21.13,42.419h24.354L25.782,56.734L33.307,33.572z"/>
										<g>
											<path id="s_84_" fill="#FFFFFF" d="M33.307,78.385l7.525,23.161L21.13,87.231h24.354l-19.702,14.314L33.307,78.385z"/>
										</g>
										<g>
											<path id="s_83_" fill="#FFFFFF" d="M33.307,123.196l7.525,23.162L21.13,132.043h24.354l-19.702,14.315L33.307,123.196z"
												/>
										</g>
										<g>
											<path id="s_82_" fill="#FFFFFF" d="M33.307,168.007l7.525,23.162L21.13,176.854h24.354l-19.702,14.315L33.307,168.007z"
												/>
										</g>
									</g>
								</g>
							</g>
							<g>
								<g>
									<g>
										<g id="s5_9_">
											<g id="s4_17_">
												<path id="s_81_" fill="#FFFFFF" d="M59.661,11.167l7.526,23.161L47.485,20.014h24.353L52.136,34.328L59.661,11.167z"/>
												<g>
													<path id="s_80_" fill="#FFFFFF" d="M59.661,55.978l7.526,23.162L47.485,64.825h24.353L52.136,79.14L59.661,55.978z"/>
												</g>
												<g>
													<path id="s_79_" fill="#FFFFFF" d="M59.661,100.79l7.526,23.161l-19.702-14.314h24.353l-19.702,14.314L59.661,100.79z"
														/>
												</g>
												<g>
													<path id="s_78_" fill="#FFFFFF" d="M59.661,145.602l7.526,23.161l-19.702-14.315h24.353l-19.702,14.315L59.661,145.602
														z"/>
												</g>
											</g>
											<g>
												<path id="s_77_" fill="#FFFFFF" d="M59.661,190.414l7.526,23.161l-19.702-14.314h24.353l-19.702,14.314L59.661,190.414z
													"/>
											</g>
										</g>
										<g id="s9_7_">
											<g id="s4_16_">
												<path id="s_76_" fill="#FFFFFF" d="M86.015,33.572l7.525,23.162L73.837,42.419h24.354L78.489,56.734L86.015,33.572z"/>
												<g>
													<path id="s_75_" fill="#FFFFFF" d="M86.015,78.385l7.525,23.161L73.837,87.231h24.354l-19.703,14.314L86.015,78.385z"
														/>
												</g>
												<g>
													<path id="s_74_" fill="#FFFFFF" d="M86.015,123.196l7.525,23.162l-19.703-14.315h24.354l-19.703,14.315L86.015,123.196
														z"/>
												</g>
												<g>
													<path id="s_73_" fill="#FFFFFF" d="M86.015,168.007l7.525,23.162l-19.703-14.315h24.354l-19.703,14.315L86.015,168.007
														z"/>
												</g>
											</g>
										</g>
										<g>
											<g id="s18_2_">
												<g id="s5_8_">
													<g id="s4_15_">
														<path id="s_72_" fill="#FFFFFF" d="M112.368,11.167l7.526,23.161l-19.703-14.314h24.354l-19.702,14.314
															L112.368,11.167z"/>
														<g>
															<path id="s_71_" fill="#FFFFFF" d="M112.368,55.978l7.526,23.162l-19.703-14.314h24.354L104.843,79.14
																L112.368,55.978z"/>
														</g>
														<g>
															<path id="s_70_" fill="#FFFFFF" d="M112.368,100.79l7.526,23.161l-19.703-14.314h24.354l-19.702,14.314
																L112.368,100.79z"/>
														</g>
														<g>
															<path id="s_69_" fill="#FFFFFF" d="M112.368,145.602l7.526,23.161l-19.703-14.315h24.354l-19.702,14.315
																L112.368,145.602z"/>
														</g>
													</g>
													<g>
														<path id="s_68_" fill="#FFFFFF" d="M112.368,190.414l7.526,23.161l-19.703-14.314h24.354l-19.702,14.314
															L112.368,190.414z"/>
													</g>
												</g>
												<g id="s9_6_">
													<g id="s4_14_">
														<path id="s_67_" fill="#FFFFFF" d="M138.721,33.572l7.526,23.162l-19.703-14.315h24.354l-19.701,14.315
															L138.721,33.572z"/>
														<g>
															<path id="s_66_" fill="#FFFFFF" d="M138.721,78.385l7.526,23.161l-19.703-14.314h24.354l-19.701,14.314
																L138.721,78.385z"/>
														</g>
														<g>
															<path id="s_65_" fill="#FFFFFF" d="M138.721,123.196l7.526,23.162l-19.703-14.315h24.354l-19.701,14.315
																L138.721,123.196z"/>
														</g>
														<g>
															<path id="s_64_" fill="#FFFFFF" d="M138.721,168.007l7.526,23.162l-19.703-14.315h24.354l-19.701,14.315
																L138.721,168.007z"/>
														</g>
													</g>
												</g>
											</g>
											<g>
												<g>
													<g id="s5_7_">
														<g id="s4_13_">
															<path id="s_63_" fill="#FFFFFF" d="M165.076,11.167l7.526,23.161l-19.703-14.314h24.354L157.55,34.328
																L165.076,11.167z"/>
															<g>
																<path id="s_62_" fill="#FFFFFF" d="M165.076,55.978l7.526,23.162l-19.703-14.314h24.354L157.549,79.14
																	L165.076,55.978z"/>
															</g>
															<g>
																<path id="s_61_" fill="#FFFFFF" d="M165.076,100.79l7.526,23.161l-19.703-14.314h24.354l-19.703,14.314
																	L165.076,100.79z"/>
															</g>
															<g>
																<path id="s_60_" fill="#FFFFFF" d="M165.076,145.602l7.526,23.161l-19.703-14.315h24.354l-19.703,14.315
																	L165.076,145.602z"/>
															</g>
														</g>
														<g>
															<path id="s_59_" fill="#FFFFFF" d="M165.076,190.414l7.526,23.161l-19.703-14.314h24.354l-19.703,14.314
																L165.076,190.414z"/>
														</g>
													</g>
													<g id="s9_5_">
														<g id="s4_12_">
															<path id="s_58_" fill="#FFFFFF" d="M191.429,33.572l7.525,23.162l-19.703-14.315h24.354l-19.701,14.315
																L191.429,33.572z"/>
															<g>
																<path id="s_57_" fill="#FFFFFF" d="M191.429,78.385l7.525,23.161l-19.703-14.314h24.354l-19.701,14.314
																	L191.429,78.385z"/>
															</g>
															<g>
																<path id="s_56_" fill="#FFFFFF" d="M191.429,123.196l7.525,23.162l-19.703-14.315h24.354l-19.701,14.315
																	L191.429,123.196z"/>
															</g>
															<g>
																<path id="s_55_" fill="#FFFFFF" d="M191.429,168.007l7.525,23.162l-19.703-14.315h24.354l-19.701,14.315
																	L191.429,168.007z"/>
															</g>
														</g>
													</g>
													<g>
														<g id="s5_6_">
															<g id="s4_11_">
																<path id="s_54_" fill="#FFFFFF" d="M217.783,11.167l7.525,23.161l-19.703-14.314h24.354l-19.703,14.314
																	L217.783,11.167z"/>
																<g>
																	<path id="s_53_" fill="#FFFFFF" d="M217.783,55.978l7.525,23.162l-19.703-14.314h24.354L210.257,79.14
																		L217.783,55.978z"/>
																</g>
																<g>
																	<path id="s_52_" fill="#FFFFFF" d="M217.783,100.79l7.525,23.161l-19.703-14.314h24.354l-19.703,14.314
																		L217.783,100.79z"/>
																</g>
																<g>
																	<path id="s_51_" fill="#FFFFFF" d="M217.783,145.602l7.525,23.161l-19.703-14.315h24.354l-19.703,14.315
																		L217.783,145.602z"/>
																</g>
															</g>
															<g>
																<path id="s_50_" fill="#FFFFFF" d="M217.783,190.414l7.525,23.161l-19.703-14.314h24.354l-19.703,14.314
																	L217.783,190.414z"/>
															</g>
														</g>
													</g>
												</g>
											</g>
										</g>
									</g>
								</g>
							</g>
						</g>
					</g>
				</g>
			</g>
		</g>
	</g>
</g>
<ellipse opacity="0.5" fill="#0B2EFF" cx="209" cy="211.497" rx="203" ry="204.494"/>
</svg>
